ffmpeg started on 2025-06-15 at 19:36:06
Report written to "D:\Convert\FFMetrics\reports\psnr_report-6.txt"
Log level: 32
Command line:
ffmpeg -hide_banner -nostdin -i "G:\\\xc0\xed\xe8\xec\xe5\\[\xd2\xee\xef]\\\xd1\xea\xe0\xe7\xe0\xed\xe8\xe5 \xee\xe1 \xee\xe1\xf0\xf3\xf7\xe0\xeb\xfc\xed\xfb\xf5 \xea\xee\xeb\xfc\xf6\xe0\xf5\\[DC] Kekkon Yubiwa Monogatari - 01_Telegram_HEVC.mkv" -i "G:\\\xc0\xed\xe8\xec\xe5\\[\xd2\xee\xef]\\\xd1\xea\xe0\xe7\xe0\xed\xe8\xe5 \xee\xe1 \xee\xe1\xf0\xf3\xf7\xe0\xeb\xfc\xed\xfb\xf5 \xea\xee\xeb\xfc\xf6\xe0\xf5\\[DC] Kekkon Yubiwa Monogatari - 01_Telegram.mp4" -lavfi "[0:v]settb=AVTB,setpts=PTS-STARTPTS,format=pix_fmts=yuv420p10,fps=24000/1001,scale=1920:1080:flags=bicubic[main];[1:v]settb=AVTB,setpts=PTS-STARTPTS,format=pix_fmts=yuv420p,fps=24000/1001,scale=1920:1080:flags=bicubic[ref];[main][ref]psnr=eof_action=endall:stats_file='D\\:/Convert/FFMetrics/logs/psnr_logfile-6.txt'" -f null -
Input #0, matroska,webm, from 'G:\Аниме\[Топ]\Сказание об обручальных кольцах\[DC] Kekkon Yubiwa Monogatari - 01_Telegram_HEVC.mkv':
  Metadata:
    COMPATIBLE_BRANDS: isomiso2avc1mp41
    MAJOR_BRAND     : isom
    MINOR_VERSION   : 512
    ENCODER         : Lavf61.7.100
  Duration: 00:23:48.44, start: -0.021000, bitrate: 1318 kb/s
  Stream #0:0: Video: hevc (Main 10), yuv420p10le(tv, bt709, progressive), 1920x1080 [SAR 1:1 DAR 16:9], 23.98 fps, 23.98 tbr, 1k tbn (default)
      Metadata:
        HANDLER_NAME    : VideoHandler
        VENDOR_ID       : [0][0][0][0]
        ENCODER         : Lavc61.19.100 libx265
        BPS             : 1121697
        DURATION        : 00:23:46.549708333
        NUMBER_OF_FRAMES: 34203
        NUMBER_OF_BYTES : 200019493
        _STATISTICS_WRITING_APP: mkvpropedit v66.0.0 ('Josie') 64-bit
        _STATISTICS_WRITING_DATE_UTC: 2025-06-15 13:44:23
        _STATISTICS_TAGS: BPS DURATION NUMBER_OF_FRAMES NUMBER_OF_BYTES
  Stream #0:1: Audio: aac (LC), 48000 Hz, stereo, fltp (default)
      Metadata:
        HANDLER_NAME    : SoundHandler
        VENDOR_ID       : [0][0][0][0]
        ENCODER         : Lavc61.19.100 aac
        BPS             : 193832
        DURATION        : 00:23:48.437000000
        NUMBER_OF_FRAMES: 66959
        NUMBER_OF_BYTES : 34609616
        _STATISTICS_WRITING_APP: mkvpropedit v66.0.0 ('Josie') 64-bit
        _STATISTICS_WRITING_DATE_UTC: 2025-06-15 13:44:23
        _STATISTICS_TAGS: BPS DURATION NUMBER_OF_FRAMES NUMBER_OF_BYTES
Input #1, mov,mp4,m4a,3gp,3g2,mj2, from 'G:\Аниме\[Топ]\Сказание об обручальных кольцах\[DC] Kekkon Yubiwa Monogatari - 01_Telegram.mp4':
  Metadata:
    major_brand     : isom
    minor_version   : 512
    compatible_brands: isomiso2avc1mp41
    encoder         : Lavf60.16.100
  Duration: 00:23:48.42, start: 0.000000, bitrate: 3828 kb/s
  Stream #1:0[0x1](und): Video: h264 (High) (avc1 / 0x31637661), yuv420p(tv, bt709, progressive), 1920x1080 [SAR 1:1 DAR 16:9], 3685 kb/s, 23.98 fps, 23.98 tbr, 24k tbn (default)
      Metadata:
        handler_name    : VideoHandler
        vendor_id       : [0][0][0][0]
        encoder         : Lavc60.31.102 h264_qsv
  Stream #1:1[0x2](und): Audio: aac (HE-AACv2) (mp4a / 0x6134706D), 48000 Hz, stereo, fltp, 144 kb/s (default)
      Metadata:
        handler_name    : SoundHandler
        vendor_id       : [0][0][0][0]
Stream mapping:
  Stream #0:0 (hevc) -> settb:default
  Stream #1:0 (h264) -> settb:default
  psnr:default -> Stream #0:0 (wrapped_avframe)
  Stream #0:1 -> #0:1 (aac (native) -> pcm_s16le (native))
Output #0, null, to 'pipe:':
  Metadata:
    COMPATIBLE_BRANDS: isomiso2avc1mp41
    MAJOR_BRAND     : isom
    MINOR_VERSION   : 512
    encoder         : Lavf61.7.100
  Stream #0:0: Video: wrapped_avframe, yuv420p10le(tv, bt709, progressive), 1920x1080 [SAR 1:1 DAR 16:9], q=2-31, 200 kb/s, 23.98 fps, 23.98 tbn
      Metadata:
        encoder         : Lavc61.19.100 wrapped_avframe
  Stream #0:1: Audio: pcm_s16le, 48000 Hz, stereo, s16, 1536 kb/s (default)
      Metadata:
        HANDLER_NAME    : SoundHandler
        VENDOR_ID       : [0][0][0][0]
        _STATISTICS_TAGS: BPS DURATION NUMBER_OF_FRAMES NUMBER_OF_BYTES
        BPS             : 193832
        DURATION        : 00:23:48.437000000
        NUMBER_OF_FRAMES: 66959
        NUMBER_OF_BYTES : 34609616
        _STATISTICS_WRITING_APP: mkvpropedit v66.0.0 ('Josie') 64-bit
        _STATISTICS_WRITING_DATE_UTC: 2025-06-15 13:44:23
        encoder         : Lavc61.19.100 pcm_s16le
frame=  156 fps=0.0 q=-0.0 size=N/A time=00:00:06.50 bitrate=N/A speed=12.7x    frame=  347 fps=339 q=-0.0 size=N/A time=00:00:14.47 bitrate=N/A speed=14.2x    frame=  604 fps=390 q=-0.0 size=N/A time=00:00:25.19 bitrate=N/A speed=16.3x    frame=  840 fps=405 q=-0.0 size=N/A time=00:00:35.03 bitrate=N/A speed=16.9x    frame= 1060 fps=410 q=-0.0 size=N/A time=00:00:44.21 bitrate=N/A speed=17.1x    frame= 1296 fps=419 q=-0.0 size=N/A time=00:00:54.05 bitrate=N/A speed=17.5x    frame= 1567 fps=433 q=-0.0 size=N/A time=00:01:05.35 bitrate=N/A speed=  18x    frame= 1824 fps=441 q=-0.0 size=N/A time=00:01:16.07 bitrate=N/A speed=18.4x    frame= 2074 fps=447 q=-0.0 size=N/A time=00:01:26.50 bitrate=N/A speed=18.6x    frame= 2302 fps=445 q=-0.0 size=N/A time=00:01:36.01 bitrate=N/A speed=18.6x    frame= 2557 fps=450 q=-0.0 size=N/A time=00:01:46.64 bitrate=N/A speed=18.8x    frame= 2737 fps=442 q=-0.0 size=N/A time=00:01:54.15 bitrate=N/A speed=18.4x    frame= 2922 fps=435 q=-0.0 size=N/A time=00:02:01.87 bitrate=N/A speed=18.1x    frame= 3128 fps=433 q=-0.0 size=N/A time=00:02:10.46 bitrate=N/A speed=18.1x    frame= 3346 fps=432 q=-0.0 size=N/A time=00:02:19.55 bitrate=N/A speed=  18x    frame= 3554 fps=431 q=-0.0 size=N/A time=00:02:28.23 bitrate=N/A speed=  18x    frame= 3719 fps=424 q=-0.0 size=N/A time=00:02:35.11 bitrate=N/A speed=17.7x    frame= 3915 fps=422 q=-0.0 size=N/A time=00:02:43.28 bitrate=N/A speed=17.6x    frame= 4075 fps=415 q=-0.0 size=N/A time=00:02:49.96 bitrate=N/A speed=17.3x    frame= 4226 fps=410 q=-0.0 size=N/A time=00:02:56.25 bitrate=N/A speed=17.1x    frame= 4458 fps=412 q=-0.0 size=N/A time=00:03:05.93 bitrate=N/A speed=17.2x    frame= 4669 fps=411 q=-0.0 size=N/A time=00:03:14.73 bitrate=N/A speed=17.1x    frame= 4875 fps=411 q=-0.0 size=N/A time=00:03:23.32 bitrate=N/A speed=17.1x    frame= 5123 fps=414 q=-0.0 size=N/A time=00:03:33.67 bitrate=N/A speed=17.3x    frame= 5380 fps=417 q=-0.0 size=N/A time=00:03:44.39 bitrate=N/A speed=17.4x    frame= 5634 fps=420 q=-0.0 size=N/A time=00:03:54.98 bitrate=N/A speed=17.5x    frame= 5884 fps=422 q=-0.0 size=N/A time=00:04:05.41 bitrate=N/A speed=17.6x    frame= 6144 fps=425 q=-0.0 size=N/A time=00:04:16.25 bitrate=N/A speed=17.7x    frame= 6412 fps=429 q=-0.0 size=N/A time=00:04:27.43 bitrate=N/A speed=17.9x    frame= 6660 fps=430 q=-0.0 size=N/A time=00:04:37.77 bitrate=N/A speed=17.9x    frame= 6894 fps=431 q=-0.0 size=N/A time=00:04:47.53 bitrate=N/A speed=  18x    frame= 7107 fps=431 q=-0.0 size=N/A time=00:04:56.42 bitrate=N/A speed=  18x    frame= 7354 fps=432 q=-0.0 size=N/A time=00:05:06.72 bitrate=N/A speed=  18x    frame= 7543 fps=430 q=-0.0 size=N/A time=00:05:14.60 bitrate=N/A speed=17.9x    frame= 7740 fps=429 q=-0.0 size=N/A time=00:05:22.82 bitrate=N/A speed=17.9x    frame= 7993 fps=430 q=-0.0 size=N/A time=00:05:33.37 bitrate=N/A speed=  18x    frame= 8246 fps=432 q=-0.0 size=N/A time=00:05:43.92 bitrate=N/A speed=  18x    frame= 8482 fps=433 q=-0.0 size=N/A time=00:05:53.77 bitrate=N/A speed=  18x    frame= 8713 fps=433 q=-0.0 size=N/A time=00:06:03.40 bitrate=N/A speed=18.1x    frame= 8936 fps=433 q=-0.0 size=N/A time=00:06:12.70 bitrate=N/A speed=18.1x    frame= 9202 fps=435 q=-0.0 size=N/A time=00:06:23.80 bitrate=N/A speed=18.1x    frame= 9473 fps=437 q=-0.0 size=N/A time=00:06:35.10 bitrate=N/A speed=18.2x    frame= 9756 fps=440 q=-0.0 size=N/A time=00:06:46.90 bitrate=N/A speed=18.3x    frame=10009 fps=441 q=-0.0 size=N/A time=00:06:57.45 bitrate=N/A speed=18.4x    frame=10235 fps=441 q=-0.0 size=N/A time=00:07:06.88 bitrate=N/A speed=18.4x    frame=10494 fps=442 q=-0.0 size=N/A time=00:07:17.68 bitrate=N/A speed=18.4x    frame=10745 fps=443 q=-0.0 size=N/A time=00:07:28.15 bitrate=N/A speed=18.5x    frame=11003 fps=444 q=-0.0 size=N/A time=00:07:38.91 bitrate=N/A speed=18.5x    frame=11261 fps=445 q=-0.0 size=N/A time=00:07:49.67 bitrate=N/A speed=18.6x    frame=11525 fps=447 q=-0.0 size=N/A time=00:08:00.68 bitrate=N/A speed=18.6x    frame=11764 fps=447 q=-0.0 size=N/A time=00:08:10.65 bitrate=N/A speed=18.7x    frame=11986 fps=447 q=-0.0 size=N/A time=00:08:19.91 bitrate=N/A speed=18.6x    frame=12219 fps=447 q=-0.0 size=N/A time=00:08:29.63 bitrate=N/A speed=18.6x    frame=12465 fps=448 q=-0.0 size=N/A time=00:08:39.89 bitrate=N/A speed=18.7x    frame=12702 fps=448 q=-0.0 size=N/A time=00:08:49.77 bitrate=N/A speed=18.7x    frame=12950 fps=448 q=-0.0 size=N/A time=00:09:00.12 bitrate=N/A speed=18.7x    frame=13159 fps=448 q=-0.0 size=N/A time=00:09:08.83 bitrate=N/A speed=18.7x    frame=13400 fps=448 q=-0.0 size=N/A time=00:09:18.89 bitrate=N/A speed=18.7x    frame=13586 fps=446 q=-0.0 size=N/A time=00:09:26.64 bitrate=N/A speed=18.6x    frame=13819 fps=446 q=-0.0 size=N/A time=00:09:36.36 bitrate=N/A speed=18.6x    frame=14064 fps=447 q=-0.0 size=N/A time=00:09:46.58 bitrate=N/A speed=18.6x    frame=14281 fps=446 q=-0.0 size=N/A time=00:09:55.63 bitrate=N/A speed=18.6x    frame=14547 fps=447 q=-0.0 size=N/A time=00:10:06.73 bitrate=N/A speed=18.7x    frame=14822 fps=449 q=-0.0 size=N/A time=00:10:18.20 bitrate=N/A speed=18.7x    frame=15096 fps=450 q=-0.0 size=N/A time=00:10:29.62 bitrate=N/A speed=18.8x    frame=15371 fps=451 q=-0.0 size=N/A time=00:10:41.09 bitrate=N/A speed=18.8x    frame=15632 fps=452 q=-0.0 size=N/A time=00:10:51.98 bitrate=N/A speed=18.9x    frame=15911 fps=453 q=-0.0 size=N/A time=00:11:03.62 bitrate=N/A speed=18.9x    frame=16150 fps=453 q=-0.0 size=N/A time=00:11:13.58 bitrate=N/A speed=18.9x    frame=16403 fps=454 q=-0.0 size=N/A time=00:11:24.14 bitrate=N/A speed=18.9x    frame=16635 fps=454 q=-0.0 size=N/A time=00:11:33.81 bitrate=N/A speed=18.9x    frame=16881 fps=454 q=-0.0 size=N/A time=00:11:44.07 bitrate=N/A speed=18.9x    frame=17125 fps=454 q=-0.0 size=N/A time=00:11:54.25 bitrate=N/A speed=  19x    frame=17335 fps=454 q=-0.0 size=N/A time=00:12:03.01 bitrate=N/A speed=18.9x    frame=17554 fps=454 q=-0.0 size=N/A time=00:12:12.14 bitrate=N/A speed=18.9x    frame=17776 fps=453 q=-0.0 size=N/A time=00:12:21.40 bitrate=N/A speed=18.9x    frame=17999 fps=453 q=-0.0 size=N/A time=00:12:30.70 bitrate=N/A speed=18.9x    frame=18223 fps=453 q=-0.0 size=N/A time=00:12:40.05 bitrate=N/A speed=18.9x    frame=18465 fps=453 q=-0.0 size=N/A time=00:12:50.14 bitrate=N/A speed=18.9x    frame=18711 fps=453 q=-0.0 size=N/A time=00:13:00.40 bitrate=N/A speed=18.9x    frame=18957 fps=454 q=-0.0 size=N/A time=00:13:10.66 bitrate=N/A speed=18.9x    frame=19215 fps=454 q=-0.0 size=N/A time=00:13:21.42 bitrate=N/A speed=18.9x    frame=19461 fps=454 q=-0.0 size=N/A time=00:13:31.68 bitrate=N/A speed=18.9x    frame=19718 fps=455 q=-0.0 size=N/A time=00:13:42.40 bitrate=N/A speed=  19x    frame=19923 fps=454 q=-0.0 size=N/A time=00:13:50.95 bitrate=N/A speed=18.9x    frame=20085 fps=453 q=-0.0 size=N/A time=00:13:57.71 bitrate=N/A speed=18.9x    frame=20303 fps=452 q=-0.0 size=N/A time=00:14:06.80 bitrate=N/A speed=18.9x    frame=20523 fps=452 q=-0.0 size=N/A time=00:14:15.98 bitrate=N/A speed=18.8x    frame=20731 fps=451 q=-0.0 size=N/A time=00:14:24.65 bitrate=N/A speed=18.8x    frame=20947 fps=451 q=-0.0 size=N/A time=00:14:33.66 bitrate=N/A speed=18.8x    frame=21163 fps=451 q=-0.0 size=N/A time=00:14:42.67 bitrate=N/A speed=18.8x    frame=21426 fps=451 q=-0.0 size=N/A time=00:14:53.64 bitrate=N/A speed=18.8x    frame=21675 fps=452 q=-0.0 size=N/A time=00:15:04.02 bitrate=N/A speed=18.8x    frame=21942 fps=452 q=-0.0 size=N/A time=00:15:15.16 bitrate=N/A speed=18.9x    frame=22203 fps=453 q=-0.0 size=N/A time=00:15:26.05 bitrate=N/A speed=18.9x    frame=22459 fps=453 q=-0.0 size=N/A time=00:15:36.72 bitrate=N/A speed=18.9x    frame=22704 fps=454 q=-0.0 size=N/A time=00:15:46.94 bitrate=N/A speed=18.9x    frame=22968 fps=454 q=-0.0 size=N/A time=00:15:57.95 bitrate=N/A speed=18.9x    frame=23235 fps=455 q=-0.0 size=N/A time=00:16:09.09 bitrate=N/A speed=  19x    frame=23510 fps=456 q=-0.0 size=N/A time=00:16:20.56 bitrate=N/A speed=  19x    frame=23765 fps=456 q=-0.0 size=N/A time=00:16:31.19 bitrate=N/A speed=  19x    frame=23982 fps=456 q=-0.0 size=N/A time=00:16:40.24 bitrate=N/A speed=  19x    frame=24200 fps=455 q=-0.0 size=N/A time=00:16:49.34 bitrate=N/A speed=  19x    frame=24466 fps=456 q=-0.0 size=N/A time=00:17:00.43 bitrate=N/A speed=  19x    frame=24656 fps=455 q=-0.0 size=N/A time=00:17:08.36 bitrate=N/A speed=  19x    frame=24838 fps=454 q=-0.0 size=N/A time=00:17:15.95 bitrate=N/A speed=18.9x    frame=25072 fps=454 q=-0.0 size=N/A time=00:17:25.71 bitrate=N/A speed=18.9x    frame=25303 fps=454 q=-0.0 size=N/A time=00:17:35.34 bitrate=N/A speed=18.9x    frame=25542 fps=454 q=-0.0 size=N/A time=00:17:45.31 bitrate=N/A speed=18.9x    frame=25750 fps=454 q=-0.0 size=N/A time=00:17:53.98 bitrate=N/A speed=18.9x    frame=25986 fps=454 q=-0.0 size=N/A time=00:18:03.83 bitrate=N/A speed=18.9x    frame=26202 fps=453 q=-0.0 size=N/A time=00:18:12.84 bitrate=N/A speed=18.9x    frame=26434 fps=453 q=-0.0 size=N/A time=00:18:22.51 bitrate=N/A speed=18.9x    frame=26658 fps=453 q=-0.0 size=N/A time=00:18:31.86 bitrate=N/A speed=18.9x    frame=26858 fps=453 q=-0.0 size=N/A time=00:18:40.20 bitrate=N/A speed=18.9x    frame=27111 fps=453 q=-0.0 size=N/A time=00:18:50.75 bitrate=N/A speed=18.9x    frame=27358 fps=453 q=-0.0 size=N/A time=00:19:01.05 bitrate=N/A speed=18.9x    frame=27586 fps=453 q=-0.0 size=N/A time=00:19:10.56 bitrate=N/A speed=18.9x    frame=27813 fps=453 q=-0.0 size=N/A time=00:19:20.03 bitrate=N/A speed=18.9x    frame=28043 fps=453 q=-0.0 size=N/A time=00:19:29.62 bitrate=N/A speed=18.9x    frame=28287 fps=453 q=-0.0 size=N/A time=00:19:39.80 bitrate=N/A speed=18.9x    frame=28515 fps=453 q=-0.0 size=N/A time=00:19:49.31 bitrate=N/A speed=18.9x    frame=28767 fps=453 q=-0.0 size=N/A time=00:19:59.82 bitrate=N/A speed=18.9x    frame=29014 fps=453 q=-0.0 size=N/A time=00:20:10.12 bitrate=N/A speed=18.9x    frame=29228 fps=453 q=-0.0 size=N/A time=00:20:19.05 bitrate=N/A speed=18.9x    frame=29465 fps=453 q=-0.0 size=N/A time=00:20:28.93 bitrate=N/A speed=18.9x    frame=29664 fps=453 q=-0.0 size=N/A time=00:20:37.23 bitrate=N/A speed=18.9x    frame=29890 fps=453 q=-0.0 size=N/A time=00:20:46.66 bitrate=N/A speed=18.9x    frame=30113 fps=452 q=-0.0 size=N/A time=00:20:55.96 bitrate=N/A speed=18.9x    frame=30381 fps=453 q=-0.0 size=N/A time=00:21:07.14 bitrate=N/A speed=18.9x    frame=30630 fps=453 q=-0.0 size=N/A time=00:21:17.52 bitrate=N/A speed=18.9x    frame=30867 fps=453 q=-0.0 size=N/A time=00:21:27.41 bitrate=N/A speed=18.9x    frame=31114 fps=453 q=-0.0 size=N/A time=00:21:37.71 bitrate=N/A speed=18.9x    frame=31366 fps=454 q=-0.0 size=N/A time=00:21:48.22 bitrate=N/A speed=18.9x    frame=31572 fps=453 q=-0.0 size=N/A time=00:21:56.81 bitrate=N/A speed=18.9x    frame=31782 fps=453 q=-0.0 size=N/A time=00:22:05.57 bitrate=N/A speed=18.9x    frame=31994 fps=453 q=-0.0 size=N/A time=00:22:14.41 bitrate=N/A speed=18.9x    frame=32187 fps=452 q=-0.0 size=N/A time=00:22:22.46 bitrate=N/A speed=18.9x    frame=32376 fps=451 q=-0.0 size=N/A time=00:22:30.34 bitrate=N/A speed=18.8x    frame=32579 fps=451 q=-0.0 size=N/A time=00:22:38.81 bitrate=N/A speed=18.8x    frame=32794 fps=451 q=-0.0 size=N/A time=00:22:47.78 bitrate=N/A speed=18.8x    frame=33003 fps=450 q=-0.0 size=N/A time=00:22:56.50 bitrate=N/A speed=18.8x    frame=33219 fps=450 q=-0.0 size=N/A time=00:23:05.50 bitrate=N/A speed=18.8x    frame=33428 fps=450 q=-0.0 size=N/A time=00:23:14.22 bitrate=N/A speed=18.8x    frame=33631 fps=449 q=-0.0 size=N/A time=00:23:22.69 bitrate=N/A speed=18.7x    frame=33814 fps=449 q=-0.0 size=N/A time=00:23:30.32 bitrate=N/A speed=18.7x    frame=34010 fps=448 q=-0.0 size=N/A time=00:23:38.50 bitrate=N/A speed=18.7x    frame=34193 fps=448 q=-0.0 size=N/A time=00:23:46.13 bitrate=N/A speed=18.7x    [Parsed_psnr_10 @ 000002fa33af7900] PSNR y:48.097285 u:50.650778 v:50.681997 average:48.797193 min:39.392588 max:inf
[out#0/null @ 000002fa31ccca80] video:14697KiB audio:267836KiB subtitle:0KiB other streams:0KiB global headers:0KiB muxing overhead: unknown
frame=34203 fps=448 q=-0.0 Lsize=N/A time=00:23:46.55 bitrate=N/A speed=18.7x    
